<svg width="952" height="308" viewBox="0 0 952 308" fill="none" xmlns="http://www.w3.org/2000/svg">
<path fill-rule="evenodd" clip-rule="evenodd" d="M411.791 77.0514H412.516C412.619 77.1544 412.826 77.2574 413.241 77.2574C416.14 78.0815 418.521 79.0086 420.282 80.2447C422.042 81.3778 423.491 82.614 424.527 83.8501C425.562 85.0862 426.183 86.4253 426.598 87.7645C427.012 89.1036 427.322 90.2367 427.53 91.3698C427.737 93.018 428.461 94.2541 429.497 95.2842C430.636 96.3143 431.878 96.7263 433.431 96.7263H447.099C448.859 96.7263 450.413 96.1083 451.655 94.7692C452.794 93.43 453.312 91.8849 453.208 90.2367C452.587 79.1116 447.927 69.9437 439.23 62.836C432.81 57.4795 424.527 54.0802 414.276 52.432C412.412 52.123 410.756 52.535 409.41 53.6681C407.856 54.9043 407.132 56.5524 407.132 58.4066V71.0768C407.132 72.622 407.546 73.8581 408.478 74.9912C409.202 75.9183 410.341 76.7424 411.791 77.0514ZM440.99 116.298C436.952 113.62 432.085 111.354 426.701 109.5C424.941 108.882 423.077 108.366 421.213 107.748C419.246 107.13 417.175 106.615 414.794 105.997L413.758 105.688C413.137 105.585 412.412 105.379 411.48 105.173C408.892 104.555 406.407 103.937 403.922 103.319C401.437 102.701 399.055 102.083 396.57 101.465C395.742 101.259 395.017 101.053 394.189 100.847C393.464 100.641 392.636 100.435 391.807 100.229C390.565 99.8166 389.219 99.3016 387.976 98.8896C386.734 98.4775 385.491 98.0655 384.456 97.5504C381.349 96.3143 378.968 94.8722 377.311 93.224C376.483 92.3999 376.069 91.7819 375.862 91.2668C375.758 90.8548 375.654 90.4427 375.654 90.2367C375.654 88.5885 375.965 86.7344 376.483 84.8802C376.483 84.7772 376.586 84.6742 376.586 84.4681C377.208 83.232 378.036 82.0989 379.278 80.9658C380.832 79.7297 383.213 78.3906 386.63 77.1544C387.251 76.9484 387.873 76.7424 388.597 76.6394C389.322 76.5364 390.151 76.4334 391.082 76.3304C392.636 76.1243 393.775 75.4033 394.706 74.2702C395.638 73.137 396.156 71.7979 396.156 70.2528V57.7885C396.156 56.0374 395.535 54.5952 394.189 53.2561C392.739 52.02 391.186 51.5049 389.322 51.711C378.347 53.0501 369.856 56.3464 363.747 61.3939C354.842 68.6046 350.494 77.8755 350.494 89.4126C350.494 97.7564 353.082 104.452 358.156 109.603C362.608 114.032 368.199 117.637 375.137 120.522C377.104 121.346 379.278 122.067 381.556 122.891C383.834 123.612 386.112 124.333 388.494 124.848C389.736 125.157 390.979 125.466 392.118 125.775C393.257 126.084 394.396 126.29 395.431 126.599C398.227 127.217 400.919 127.835 403.611 128.556C406.303 129.278 408.892 129.896 411.48 130.617L411.998 130.823C412.309 130.926 412.723 131.029 413.034 131.132C413.344 131.235 413.758 131.338 414.276 131.441C419.66 133.089 424.009 135.046 427.426 137.312C429.497 138.651 430.532 140.712 430.532 143.184C430.532 144.111 430.429 145.244 430.222 146.686C430.015 148.025 429.393 149.467 428.254 150.807C427.115 152.146 425.252 153.485 422.87 154.721C420.385 155.957 416.968 156.781 412.412 157.193C410.859 157.399 409.617 158.12 408.581 159.15C407.546 160.284 407.028 161.623 407.028 163.271V175.735C407.028 177.589 407.753 179.134 409.099 180.267C410.134 181.298 411.48 181.813 413.137 181.813H413.862C419.453 181.195 424.527 180.164 429.186 178.722C433.742 177.177 437.884 175.22 441.301 172.645C451.344 165.743 456.314 155.648 456.314 142.566C456.314 137.003 454.968 131.956 452.38 127.423C449.791 123.2 445.96 119.389 440.99 116.298ZM391.289 156.781C389.426 156.369 387.665 155.854 386.112 155.339C384.559 154.824 383.006 154.103 381.66 153.382C376.276 150.292 373.48 145.759 373.066 139.991C372.962 138.342 372.341 137.003 371.099 135.87C369.96 134.737 368.51 134.222 366.853 134.222H353.082C351.218 134.222 349.665 134.943 348.526 136.282C347.284 137.518 346.766 139.166 346.973 141.021C348.112 153.897 353.289 163.889 362.401 171.1C369.338 176.559 378.243 180.061 389.012 181.71C389.115 181.71 389.219 181.71 389.322 181.71H391.186C391.393 181.71 391.704 181.71 391.911 181.607C394.706 180.473 396.156 178.516 396.156 175.632V162.756C396.156 161.417 395.742 160.078 394.81 158.944C393.982 157.708 392.843 156.987 391.289 156.781ZM564.62 63.6601C556.13 55.8314 544.947 51.814 531.073 51.814H478.369C476.712 51.814 475.366 52.432 474.124 53.6681C472.881 54.9043 472.26 56.3464 472.26 57.9946V70.5618C472.26 72.21 472.881 73.6521 474.124 74.8882C475.366 76.1243 476.816 76.7424 478.369 76.7424H530.141C537.699 76.7424 543.291 78.3906 546.915 81.7899C550.332 84.9832 551.988 89.6186 551.988 95.5932C551.988 101.774 550.332 106.409 546.915 109.397C543.498 112.693 537.906 114.444 530.141 114.444H478.369C476.712 114.444 475.263 115.062 474.124 116.298C472.985 117.534 472.26 118.977 472.26 120.522V174.396C472.26 176.044 472.881 177.486 474.124 178.619C475.366 179.855 476.712 180.473 478.369 180.473H491.519C493.176 180.473 494.522 179.855 495.764 178.619C497.007 177.383 497.628 175.941 497.628 174.396V140.712C497.628 139.785 498.353 138.96 499.388 138.96H531.073C545.154 138.96 556.337 135.046 564.62 127.32C573.111 119.286 577.356 108.779 577.356 95.4902C577.356 82.2019 573.111 71.6949 564.62 63.6601ZM656.152 55.6253C655.117 53.0501 653.253 51.814 650.561 51.814H633.787C632.545 51.814 631.406 52.123 630.37 52.7411C629.335 53.3591 628.61 54.2862 628.196 55.6253L593.923 135.561C593.095 137.621 593.302 139.579 594.441 141.33C595.683 143.184 597.444 144.111 599.722 144.111H614.425C615.667 144.111 616.806 143.802 617.842 143.184C618.877 142.566 619.602 141.639 620.016 140.506L640.621 91.5758C641.242 90.1337 643.21 90.1337 643.831 91.5758L665.678 143.493L669.924 153.691C670.441 154.824 669.613 156.06 668.37 156.06H589.471C588.228 156.06 587.089 156.369 586.054 157.09C585.018 157.811 584.294 158.738 583.879 159.871L578.495 172.439C577.563 174.396 577.77 176.25 579.013 178.104C580.152 179.958 581.912 180.886 584.087 180.886H700.572C702.643 180.886 704.403 179.958 705.646 178.104C706.785 176.147 706.992 174.19 706.164 172.336L656.152 55.6253ZM763.423 53.9772C761.766 52.7411 760.006 52.329 758.142 52.7411C745.717 55.2133 735.156 61.1879 726.458 70.6648C715.379 83.026 709.891 98.4775 709.891 117.019C709.891 135.561 715.379 151.013 726.458 163.374C735.052 172.748 745.614 178.825 758.142 181.401H759.385C761.041 181.401 762.388 180.989 763.423 180.061C764.976 178.928 765.701 177.383 765.701 175.323V161.623C765.701 160.387 765.287 159.15 764.355 158.017C763.527 156.884 762.388 156.163 761.145 155.854C754.725 154 749.445 150.807 745.303 146.171C738.573 138.754 735.259 129.071 735.259 117.019C735.259 105.07 738.573 95.3872 745.303 87.8675C748.616 84.2621 752.551 81.4809 757.21 79.3176C758.142 78.9056 759.488 78.4936 761.041 78.0815C762.284 77.6695 763.423 76.8454 764.251 75.7123C765.08 74.5792 765.597 73.4461 765.597 72.1069V58.5096C765.701 56.6554 764.873 55.1103 763.423 53.9772ZM810.224 62.424C802.459 56.9645 793.45 53.4621 783.51 51.814C781.647 51.6079 779.99 52.123 778.644 53.3591C777.194 54.3892 776.573 55.9344 776.573 57.8916V70.5618C776.573 72.21 776.987 73.5491 778.023 74.6822C778.954 75.8153 780.197 76.4334 781.854 76.6394C786.306 77.3605 790.551 79.0086 794.589 81.4809C799.87 85.0862 803.701 89.9277 806.29 95.9023C807.429 98.3745 809.396 99.5076 812.088 99.5076H826.066C828.137 99.5076 829.898 98.6835 831.14 96.9324C832.279 95.1812 832.59 93.327 831.865 91.3698C827.516 79.4207 820.372 69.7377 810.224 62.424ZM825.963 134.325H811.985C809.293 134.325 807.429 135.561 806.186 137.93C803.598 143.905 799.767 148.746 794.486 152.352C790.758 154.927 786.41 156.472 781.543 157.193C779.99 157.399 778.851 158.12 777.919 159.15C776.987 160.284 776.469 161.623 776.469 163.271V175.941C776.469 177.898 777.194 179.443 778.54 180.473C779.576 181.504 780.922 182.019 782.578 182.019H783.407C793.45 180.37 802.355 176.868 810.121 171.409C820.268 164.095 827.413 154.412 831.658 142.36C832.383 140.403 832.072 138.548 830.933 136.797C829.794 135.252 828.034 134.325 825.963 134.325ZM853.609 128.762H933.544C933.855 128.762 934.165 128.659 934.476 128.556C937.168 127.011 938.514 125.054 938.514 122.685V109.706C938.514 107.336 937.168 105.379 934.476 103.834C934.165 103.731 933.855 103.628 933.544 103.628H853.609C851.952 103.628 850.503 104.246 849.364 105.482C848.225 106.718 847.5 108.16 847.5 109.706V122.685C847.5 124.333 848.121 125.775 849.364 126.908C850.606 128.041 851.952 128.762 853.609 128.762ZM944.313 53.6681C943.174 52.432 941.724 51.814 939.964 51.814H853.609C851.952 51.814 850.503 52.432 849.364 53.6681C848.121 54.9043 847.5 56.2434 847.5 57.8916V71.9009C847.5 72.21 847.603 72.519 847.707 72.828C849.26 75.4033 851.227 76.7424 853.609 76.7424H939.964C941.724 76.7424 943.174 76.1243 944.313 74.8882C945.452 73.6521 946.073 72.21 946.073 70.4588V57.8916C946.073 56.2434 945.555 54.9043 944.313 53.6681ZM939.964 155.957H853.609C851.227 155.957 849.26 157.296 847.707 159.871C847.603 160.181 847.5 160.49 847.5 160.799V174.808C847.5 176.456 848.121 177.795 849.364 179.031C850.606 180.267 852.056 180.886 853.609 180.886H939.964C941.724 180.886 943.174 180.267 944.313 179.031C945.452 177.795 946.073 176.456 946.073 174.808V162.241C946.073 160.49 945.452 159.047 944.313 157.811C943.174 156.472 941.724 155.957 939.964 155.957Z" fill="#64177C"/>
<path fill-rule="evenodd" clip-rule="evenodd" d="M383.005 247.739C380.313 250.726 376.171 252.683 371.719 252.683C361.986 252.683 354.427 245.267 354.427 234.657C354.427 223.943 361.986 216.63 371.719 216.63C376.171 216.63 380.313 218.587 383.005 221.574C383.523 222.192 384.455 222.295 385.179 221.78C386.111 221.162 386.215 219.926 385.49 219.102C382.073 215.6 377.517 213.436 371.822 213.436C360.122 213.436 350.803 222.089 350.803 234.657C350.803 247.224 360.019 255.877 371.822 255.877C378.449 255.877 383.212 252.992 386.94 248.563L385.283 247.533C384.455 247.121 383.523 247.121 383.005 247.739ZM456.417 217.248C436.433 207.153 421.834 218.381 421.834 234.657C421.834 246.709 429.807 255.877 441.921 255.877C459.316 255.877 468.221 236.82 457.142 217.866C457.038 217.66 456.728 217.351 456.417 217.248ZM441.921 252.683C431.877 252.683 425.561 244.958 425.561 234.657C425.561 224.15 431.877 216.63 441.921 216.63C451.861 216.63 458.281 224.253 458.281 234.657C458.281 244.958 451.861 252.683 441.921 252.683ZM545.257 214.055H544.843C544.118 214.055 543.393 214.57 543.186 215.291L535.213 244.339C534.799 245.988 532.418 245.988 531.9 244.339L523.824 215.291C523.616 214.57 522.995 214.055 522.167 214.055H521.546C520.821 214.055 520.096 214.57 519.889 215.291L511.709 244.339C511.191 245.988 508.913 245.988 508.396 244.339L500.423 215.291C500.216 214.57 499.594 214.055 498.766 214.055H498.352C497.213 214.055 496.385 215.188 496.695 216.218L507.567 253.919C507.774 254.64 508.499 255.156 509.224 255.156H510.57C511.295 255.156 512.02 254.64 512.227 253.919L520.2 225.695C520.614 224.046 522.995 224.046 523.513 225.695L531.486 253.919C531.693 254.64 532.314 255.156 533.142 255.156H534.488C535.213 255.156 535.938 254.64 536.145 253.919L546.914 216.218C547.224 215.085 546.396 214.055 545.257 214.055ZM616.287 217.248C596.304 207.153 581.704 218.381 581.704 234.657C581.704 246.709 589.677 255.877 601.791 255.877C619.187 255.877 628.091 236.82 617.012 217.866C616.805 217.66 616.598 217.351 616.287 217.248ZM601.791 252.683C591.748 252.683 585.432 244.958 585.432 234.657C585.432 224.15 591.748 216.63 601.791 216.63C611.732 216.63 618.151 224.253 618.151 234.657C618.151 244.958 611.732 252.683 601.791 252.683ZM679.034 237.541C684.005 236.408 687.939 232.39 687.939 226.004C687.939 218.484 682.451 213.952 675.307 213.952H661.639C660.707 213.952 659.879 214.673 659.879 215.703V253.404C659.879 254.331 660.604 255.156 661.639 255.156H661.743C662.675 255.156 663.503 254.434 663.503 253.404V239.807C663.503 238.88 664.228 238.056 665.263 238.056H671.786C672.304 238.056 672.925 238.365 673.236 238.777L683.797 254.331C684.108 254.847 684.626 255.053 685.247 255.053H688.664L678.31 240.116C677.378 239.292 677.895 237.85 679.034 237.541ZM665.16 234.966C664.228 234.966 663.399 234.244 663.399 233.214V218.896C663.399 217.969 664.124 217.145 665.16 217.145H675.1C680.588 217.145 684.315 220.75 684.315 226.004C684.315 231.257 680.588 234.863 675.1 234.863H665.16V234.966ZM737.536 232.493L754.103 214.055H750.376C749.858 214.055 749.444 214.261 749.133 214.673L732.67 233.214C731.634 234.348 729.667 233.626 729.667 232.081V215.806C729.667 214.879 728.942 214.055 727.907 214.055H727.803C726.871 214.055 726.043 214.776 726.043 215.806V253.507C726.043 254.434 726.768 255.259 727.803 255.259H727.907C728.839 255.259 729.667 254.537 729.667 253.507V241.455C729.667 241.043 729.874 240.631 730.081 240.322L732.98 237.232C733.705 236.511 734.844 236.511 735.569 237.232L750.893 254.537C751.204 254.95 751.722 255.156 752.136 255.156H755.863L737.536 234.76C737.019 234.141 737.019 233.214 737.536 232.493ZM793.657 214.055H793.553C792.621 214.055 791.793 214.776 791.793 215.806V253.507C791.793 254.434 792.518 255.259 793.553 255.259H793.657C794.588 255.259 795.417 254.537 795.417 253.507V215.806C795.313 214.776 794.588 214.055 793.657 214.055ZM866.447 214.055H866.344C865.412 214.055 864.583 214.776 864.583 215.806V243.824C864.583 245.473 862.513 246.194 861.477 244.855L839.112 214.879C838.801 214.467 838.284 214.158 837.766 214.158H836.73C835.799 214.158 834.97 214.879 834.97 215.909V253.61C834.97 254.537 835.695 255.362 836.73 255.362H836.834C837.766 255.362 838.594 254.64 838.594 253.61V225.18C838.594 223.531 840.665 222.81 841.7 224.15L864.169 254.64C864.48 255.053 864.998 255.362 865.515 255.362H866.447C867.379 255.362 868.207 254.64 868.207 253.61V215.909C868.104 214.776 867.379 214.055 866.447 214.055ZM941.102 234.76H923.603V237.953H937.478C938.41 237.953 939.238 238.674 939.238 239.704V247.121C939.238 247.636 939.031 248.048 938.72 248.357C936.339 250.52 932.197 252.889 927.123 252.889C917.39 252.889 909.832 245.37 909.832 234.76C909.832 224.046 917.39 216.733 927.123 216.733C931.886 216.733 936.132 218.587 939.134 221.471C939.756 221.986 940.584 222.089 941.309 221.574L942.758 220.544C938.927 216.218 934.061 213.539 927.227 213.539C915.63 213.539 906.208 222.089 906.208 234.76C906.208 247.43 915.527 256.083 927.227 256.083C933.44 256.083 938.824 253.507 942.448 249.696C942.758 249.387 942.966 248.975 942.966 248.46V236.511C942.862 235.481 942.137 234.76 941.102 234.76Z" fill="#64177C"/>
<path fill-rule="evenodd" clip-rule="evenodd" d="M116.381 6.59274C131.498 -2.16311 150.239 -2.16311 165.357 6.59274L256.785 59.1278C272.006 67.8837 281.325 83.9533 281.325 101.362V206.432C281.325 223.841 271.902 239.91 256.785 248.666L165.357 301.201C150.239 309.957 131.498 309.957 116.381 301.201L24.9523 248.666C9.73147 239.91 0.412598 223.841 0.412598 206.432V101.362C0.412598 83.9533 9.73147 67.8837 24.9523 59.1278L116.381 6.59274ZM208.016 175.014H190.932C187.618 175.014 185.34 176.456 183.891 179.444C180.784 186.757 176.021 192.629 169.602 196.955C165.046 200.046 159.765 202.003 153.76 202.827C151.896 203.136 150.446 203.96 149.307 205.299C148.168 206.638 147.547 208.286 147.547 210.244V225.695C147.547 228.064 148.376 229.918 150.136 231.155C151.378 232.391 153.035 233.009 155.002 233.009H156.038C168.256 231.052 179.128 226.725 188.757 220.133C201.182 211.274 209.88 199.531 215.057 184.8C215.886 182.431 215.575 180.165 214.229 178.001C212.572 176.147 210.501 175.014 208.016 175.014ZM125.078 75.8155C109.858 78.8028 96.9147 86.0135 86.4568 97.5506C72.8927 112.59 66.1624 131.441 66.1624 154C66.1624 176.559 72.8927 195.307 86.4568 210.45C97.0182 221.884 109.858 229.197 125.078 232.391H126.528C128.495 232.391 130.152 231.876 131.394 230.743C133.258 229.3 134.19 227.446 134.19 225.077V208.389C134.19 206.844 133.672 205.402 132.533 204.063C131.498 202.724 130.152 201.797 128.599 201.385C120.73 199.118 114.31 195.204 109.236 189.539C101.056 180.474 97.0182 168.731 97.0182 154C97.0182 139.476 101.056 127.63 109.236 118.462C113.274 114.135 118.141 110.633 123.836 108.058C124.975 107.543 126.528 107.028 128.599 106.615C130.152 106.1 131.498 105.07 132.533 103.731C133.569 102.392 134.19 100.95 134.19 99.4048V82.9232C134.294 80.5539 133.362 78.5967 131.498 77.2576C129.531 75.7125 127.356 75.1974 125.078 75.8155ZM150.032 76.3305C148.272 77.5666 147.444 79.4208 147.444 81.7901V97.2416C147.444 99.1987 147.961 100.847 149.204 102.186C150.343 103.834 151.896 104.658 153.967 104.864C159.351 105.688 164.528 107.646 169.602 110.736C176.021 115.062 180.784 120.934 183.891 128.248C185.34 131.235 187.618 132.677 190.932 132.677H208.016C210.605 132.677 212.676 131.647 214.229 129.484C215.678 127.32 215.989 125.157 215.057 122.685C209.88 108.058 201.182 96.3145 188.757 87.3526C179.231 80.76 168.359 76.4335 156.038 74.4763C153.76 74.1673 151.792 74.7854 150.032 76.3305Z" fill="#64177C"/>
</svg>
