<svg xmlns="http://www.w3.org/2000/svg" viewBox="0 0 282 308" fill="none">
<path fill-rule="evenodd" clip-rule="evenodd" d="M116.381 6.59274C131.498 -2.16311 150.239 -2.16311 165.357 6.59274L256.785 59.1278C272.006 67.8837 281.325 83.9533 281.325 101.362V206.432C281.325 223.841 271.902 239.91 256.785 248.666L165.357 301.201C150.239 309.957 131.498 309.957 116.381 301.201L24.9523 248.666C9.73147 239.91 0.412598 223.841 0.412598 206.432V101.362C0.412598 83.9533 9.73147 67.8837 24.9523 59.1278L116.381 6.59274ZM208.016 175.014H190.932C187.618 175.014 185.34 176.456 183.891 179.444C180.784 186.757 176.021 192.629 169.602 196.955C165.046 200.046 159.765 202.003 153.76 202.827C151.896 203.136 150.446 203.96 149.307 205.299C148.168 206.638 147.547 208.286 147.547 210.244V225.695C147.547 228.064 148.376 229.918 150.136 231.155C151.378 232.391 153.035 233.009 155.002 233.009H156.038C168.256 231.052 179.128 226.725 188.757 220.133C201.182 211.274 209.88 199.531 215.057 184.8C215.886 182.431 215.575 180.165 214.229 178.001C212.572 176.147 210.501 175.014 208.016 175.014ZM125.078 75.8155C109.858 78.8028 96.9147 86.0135 86.4568 97.5506C72.8927 112.59 66.1624 131.441 66.1624 154C66.1624 176.559 72.8927 195.307 86.4568 210.45C97.0182 221.884 109.858 229.197 125.078 232.391H126.528C128.495 232.391 130.152 231.876 131.394 230.743C133.258 229.3 134.19 227.446 134.19 225.077V208.389C134.19 206.844 133.672 205.402 132.533 204.063C131.498 202.724 130.152 201.797 128.599 201.385C120.73 199.118 114.31 195.204 109.236 189.539C101.056 180.474 97.0182 168.731 97.0182 154C97.0182 139.476 101.056 127.63 109.236 118.462C113.274 114.135 118.141 110.633 123.836 108.058C124.975 107.543 126.528 107.028 128.599 106.615C130.152 106.1 131.498 105.07 132.533 103.731C133.569 102.392 134.19 100.95 134.19 99.4048V82.9232C134.294 80.5539 133.362 78.5967 131.498 77.2576C129.531 75.7125 127.356 75.1974 125.078 75.8155ZM150.032 76.3305C148.272 77.5666 147.444 79.4208 147.444 81.7901V97.2416C147.444 99.1987 147.961 100.847 149.204 102.186C150.343 103.834 151.896 104.658 153.967 104.864C159.351 105.688 164.528 107.646 169.602 110.736C176.021 115.062 180.784 120.934 183.891 128.248C185.34 131.235 187.618 132.677 190.932 132.677H208.016C210.605 132.677 212.676 131.647 214.229 129.484C215.678 127.32 215.989 125.157 215.057 122.685C209.88 108.058 201.182 96.3145 188.757 87.3526C179.231 80.76 168.359 76.4335 156.038 74.4763C153.76 74.1673 151.792 74.7854 150.032 76.3305Z" fill="#64177C"/>
</svg>
